<svg xmlns="http://www.w3.org/2000/svg" width="130.249" height="158.564" viewBox="0 0 130.249 158.564"><defs><style>.a{fill:#fff;opacity:0;}.b{fill:#6f511b;}.c{fill:#fdf1d3;}.d{fill:#fbce86;}.e{fill:#fdc067;}.f{fill:#f9c95f;}.g{fill:#fac85f;}.h{fill:#fac55c;}.i{fill:#f39972;}.j,.k{stroke:none;}.k{fill:#707070;}</style></defs><g transform="translate(-0.001)"><g class="a" transform="translate(0.001 0)"><path class="j" d="M 129.7493743896484 158.064453125 L 0.5000072121620178 158.064453125 L 0.5000072121620178 0.5000065565109253 L 129.7493743896484 0.5000065565109253 L 129.7493743896484 158.064453125 Z"/><path class="k" d="M 1 1 L 1 157.564453125 L 129.2493743896484 157.564453125 L 129.2493743896484 1 L 1 1 M 0 0 L 130.2493743896484 0 L 130.2493743896484 158.564453125 L 0 158.564453125 L 0 0 Z"/></g><g transform="translate(9.507 22.652)"><g transform="translate(2.372 0)"><path class="b" d="M65.8,127.3a1.5,1.5,0,0,0,.83,2.407c.827.05,5.085-2.141,5.4-1.914A32.535,32.535,0,0,0,82.2,138.4c.266.177,1.43.723,1.373.973-.027.118-1.253,1.625-1.466,1.944a40.457,40.457,0,0,0-7.047,19.091c-.218.05-.266-.07-.391-.2-3.81-3.919-3.021-10.159-3.689-15.047-.8-5.906-6.622-12.576-12.91-9.016-4.06,2.3-4.037,9.1-3.408,13.148,1.73,11.123,9.786,21.539,21.159,23.712a15.894,15.894,0,0,0,2.328,5.074c.725.984,2.264,2.848,3.31,1.1.748-1.248-1.073-2.526-1.739-3.594-5.39-8.663-1.166-23.794,3.93-31.814a26.025,26.025,0,0,1,2.221-3.155.32.32,0,0,1,.355-.111c.4.043,1.4.555,1.935.7a6.037,6.037,0,0,0,1.491.323c1.139-.08,1.769-1.357.782-2.071-5.692-2.414-10.509-5.374-14.249-10.382a17.054,17.054,0,0,1-1.384-2.023c-.08-.266.077-.161.189-.2,2.023-.625,4.119-.977,6.145-1.589,1.164-.962.393-2.389-1.012-2.332l-6.749,1.548a20.038,20.038,0,0,1-1.85-6.274c1.607.018,3.173-.175,4.787-.136,1.107.027,4,.823,4.246-.855.2-1.391-1.2-1.682-2.282-1.764-2.371-.18-4.785.114-7.147-.07A33.587,33.587,0,0,1,76.6,95.59c-.164-6.979-.286-14.428,2.289-21.03,1.123-2.878,1.885-3.749,4.994-2.31,3.858,1.787,8.641,6.133,11.614,9.218,1.055,1.093,2.112,2.616,3.2,3.61a1.532,1.532,0,0,0,1.048.534,59.406,59.406,0,0,1,23.673-.759c1.046.175,3.314.921,4.208.716.6-.139,1.241-1.184,1.662-1.614,3.592-3.653,8.345-8.2,12.885-10.566,1.946-1.014,3.56-2.069,4.787.366,3.085,6.12,2.739,15.265,2.537,21.964,3.387,5.428,6.088,12.93,5.478,19.427-.016.173,0,.348-.2.418a11.773,11.773,0,0,0-2.5-.1,40.538,40.538,0,0,0-5.308.325,1.338,1.338,0,0,0-.157,2.662,26.238,26.238,0,0,0,3.908-.2l3.855.1a31.433,31.433,0,0,1-1.841,6.281l-6.622-1.555a1.3,1.3,0,0,0-.746,2.448l6.063,1.666a32.381,32.381,0,0,1-8.843,8.579c-.243-.018-1.659-3.928-1.935-4.481a3.432,3.432,0,0,0-3.437-2.169c-1.143,0-7.254,1.987-8.579,2.53-4.574,1.873-1.655,6.379-.466,9.368,1.823,4.585,3.617,10.787,2.471,15.694-2.814,12.057-21.866,12.337-25,.416-1.339-5.09.436-11.475,2.362-16.24,1.066-2.641,3.937-7.067.089-9.007a51.273,51.273,0,0,0-7.654-2.564c-3.808-.93-4.624,1.33-5.8,4.23-.673,1.662-2.391,4.746-.064,5.7a81.451,81.451,0,0,0-3.08,8.318,13.112,13.112,0,0,1-1.773.323c-1.023.248-4.117,1.457-4.644,2.3a1.16,1.16,0,0,0,.789,1.823c.568.036,2.923-1.323,3.785-1.575,2.844-.827,5.369.164,6.361,3.019-1.118-.325-3.994-.684-4.367.812-.38,1.519,2.3.8,3.112.9a4.035,4.035,0,0,1,1.794.837c.227.309-.332,2.1-.514,2.516-1.575,3.633-7.047,5.233-10.686,4.742-.8-.107-2.276-.818-2.732.311-.562,1.394.743,1.825,1.834,2.028a14.941,14.941,0,0,0,7.5-.752c1.487,6.06,6.145,11.2,11.7,13.912,12.505,6.1,31.411,3.537,38.763-9.238a15.705,15.705,0,0,0,1.687-3.88c1.891.091,3.405.05,4.962-1.13,5.378-4.078,3.983-14.1-2.348-16.495-.664-.25-1.38-.307-2.03-.591-.286-.93-.543-1.873-.884-2.785-.673-1.8-1.555-3.544-2.185-5.328a28.666,28.666,0,0,0,12.323-11.262c.464-.3,4.442,1.823,5.54,1.682a1.449,1.449,0,0,0,.8-2.355c-.643-.6-4.887-1.619-5.047-1.834.787-2.262,1.8-4.519,1.966-6.942a13.756,13.756,0,0,1,1.882.15c.88.1,2.548.546,3.292.514a1.407,1.407,0,0,0,.623-2.594c-1.241-.73-3.953-.709-5.4-.95a36.127,36.127,0,0,0-4.562-19.086,10.3,10.3,0,0,1-.912-1.446,24.367,24.367,0,0,1,.1-3.378c.2-5.858-.261-13.485-2.73-18.891-2.712-5.94-7.747-2.541-11.593.114a71.3,71.3,0,0,0-11.046,9.773c-1.991-.4-4.005-.773-6.026-1a63.305,63.305,0,0,0-20.539,1l-4.2-4.426A57.908,57.908,0,0,0,87.1,71.13c-5.756-3.487-8.8-3.205-11.027,3.492-2.132,6.395-2.36,13.642-2.069,20.334a36.035,36.035,0,0,0-5.515,20.561l-.1.15c-1.184.15-4.562.411-5.383,1.168a1.476,1.476,0,0,0,.491,2.4c1.2.275,3.835-.782,5.2-.743l.182.2a29.58,29.58,0,0,0,1.846,6.506c-.086.3-2.012.809-2.435.98a16,16,0,0,0-2.491,1.112Zm32.357,4.712a1.774,1.774,0,0,1,1.278-.246,49.817,49.817,0,0,1,7.008,2.3c.925.4,1.159.623.948,1.741a47.081,47.081,0,0,1-1.839,4.383c-.436.443-1.057.246-1.564.127a50.213,50.213,0,0,1-6.722-2.187c-.825-.355-1.275-.566-1.08-1.609a37.546,37.546,0,0,1,1.607-3.9,3.312,3.312,0,0,1,.364-.618Zm39.568-.141c.246.073.564.521.689.752a33.781,33.781,0,0,1,1.569,3.671c.232.939.123,1.384-.73,1.769-2.251,1.018-5.24,1.439-7.563,2.4a1.36,1.36,0,0,1-1.089-.291,30.229,30.229,0,0,1-1.764-4c-.239-.921-.225-1.644.73-2.035a57.166,57.166,0,0,1,6.549-2.1A3.253,3.253,0,0,1,137.726,131.875ZM75.192,170.234c-8.986-2.451-15.826-10.759-17.647-19.754-.832-4.11-1.691-14.34,5.36-12.435,6.588,1.778,5.24,10.975,6.172,15.969a15.5,15.5,0,0,0,5.565,9.9,30.891,30.891,0,0,0,.55,6.326Zm29.35-27.247c-2.478,7.14-3.521,16.265,2.88,21.682,6.217,5.263,17.286,4.819,22.735-1.375,4.9-5.574,3.635-13.733,1.512-20.227l7.465-2.514,2.887,7.2c-3.946,1.507-5.117,5.81-4.856,9.711a8.941,8.941,0,0,0,4.587,7.081,20.716,20.716,0,0,1-10.718,11.944c-11.039,5.376-29.106,3.157-35.124-8.691-.277-.548-1.673-3.73-1.439-4.092,6.022-3.055,6.01-12.644-.155-15.544l-.107-.234,2.737-7.427,7.593,2.489ZM139.913,153.2c1.778-4.831,7.468-3.46,9.2.7,2.326,5.6-1.88,12.548-7.49,7.361.7.009,1.407.516,2.135.3a1.539,1.539,0,0,0,.591-.591c.575-1.916-3.592-1.666-4.428-2.462a5.377,5.377,0,0,1-.309-2.917c.118-.273,1.257-.532,1.564-.541.752-.02,3.435.871,3.173-.83-.232-1.509-3.344-1.173-4.431-1.018Z" transform="translate(-54.352 -68.924)"/><path class="b" d="M241.008,287.987a3.69,3.69,0,0,1-3.489.632c-.977-.332-2.542-2.669-3.467-1.234-1.1,1.712,2.578,3.526,3.924,3.66a5.918,5.918,0,0,0,5.108-2.094c1.914,2.475,5.372,2.478,7.784.707.791-.582,1.873-1.482.934-2.485-1.023-1.093-1.8.384-2.587.834-1.762,1-4.194.787-4.851-1.387a9.162,9.162,0,0,1-.239-2.453c.059-.166,1.362-1.087,1.7-1.516,2.328-2.978-.741-3.376-3.139-3.271-1.925.084-4.021.375-2.657,2.8.4.707,1.878,1.678,1.939,1.991a5.029,5.029,0,0,1-.959,3.817Z" transform="translate(-183.658 -231.528)"/><path class="b" d="M330.174,246.08c-4.635-.559-6.747,7.861-2.041,9.9C334.352,258.689,336.653,246.859,330.174,246.08Z" transform="translate(-286.375 -205.787)"/><path class="b" d="M189.775,246.058c-5.6-.727-6.249,9.8-.621,10.314C194.878,256.892,195.31,246.778,189.775,246.058Z" transform="translate(-114.139 -205.763)"/></g><path class="c" d="M119.735,437.608a1.538,1.538,0,0,0,.591-.591c.575-1.916-3.592-1.666-4.428-2.462a5.377,5.377,0,0,1-.309-2.917c.118-.273,1.257-.532,1.564-.541.752-.02,3.435.871,3.173-.83-.232-1.509-3.344-1.173-4.431-1.018,1.778-4.831,7.468-3.46,9.2.7,2.326,5.6-1.88,12.546-7.49,7.361.7.009,1.407.516,2.135.3Z" transform="translate(-27.963 -344.97)"/><path class="c" d="M100.781,184.6c-5.39-8.663-1.166-23.794,3.93-31.814a26.031,26.031,0,0,1,2.221-3.155.32.32,0,0,1,.355-.111c.4.043,1.4.555,1.935.7a6.035,6.035,0,0,0,1.491.323c1.139-.08,1.769-1.357.782-2.071-5.692-2.414-10.509-5.374-14.249-10.382a17.055,17.055,0,0,1-1.384-2.023c-.08-.266.077-.161.189-.2,2.023-.625,4.119-.978,6.145-1.589,1.164-.962.393-2.389-1.012-2.332l-6.749,1.548a20.039,20.039,0,0,1-1.85-6.274c1.607.018,3.173-.175,4.787-.136,1.107.027,4,.823,4.246-.855.2-1.391-1.2-1.682-2.282-1.764-2.371-.18-4.785.114-7.147-.07a33.587,33.587,0,0,1,5.474-19.8c-.164-6.979-.286-14.428,2.289-21.03,1.123-2.878,1.885-3.749,4.994-2.31,3.858,1.787,8.641,6.133,11.614,9.218,1.055,1.093,2.112,2.616,3.2,3.61a1.532,1.532,0,0,0,1.048.534,59.406,59.406,0,0,1,23.673-.759c1.046.175,3.314.921,4.208.716.6-.139,1.241-1.184,1.662-1.614,3.592-3.653,8.345-8.2,12.885-10.566,1.946-1.014,3.56-2.069,4.787.366,3.085,6.12,2.739,15.265,2.537,21.964,3.387,5.428,6.088,12.93,5.478,19.427-.016.173,0,.348-.2.418a11.774,11.774,0,0,0-2.5-.1,40.539,40.539,0,0,0-5.308.325,1.338,1.338,0,0,0-.157,2.662,26.236,26.236,0,0,0,3.908-.2l3.855.1a31.432,31.432,0,0,1-1.841,6.281l-6.622-1.553a1.3,1.3,0,0,0-.746,2.448l6.063,1.666a32.381,32.381,0,0,1-8.843,8.579c-.243-.018-1.659-3.928-1.935-4.481a3.432,3.432,0,0,0-3.437-2.169c-1.143,0-7.252,1.987-8.579,2.53-4.574,1.873-1.655,6.379-.466,9.368,1.823,4.585,3.617,10.786,2.471,15.694-2.814,12.057-21.866,12.337-25,.416-1.339-5.09.436-11.475,2.362-16.24,1.066-2.641,3.937-7.067.089-9.007a51.271,51.271,0,0,0-7.654-2.564c-3.808-.93-4.624,1.33-5.8,4.23-.673,1.662-2.391,4.747-.064,5.7a81.454,81.454,0,0,0-3.08,8.318,13.11,13.11,0,0,1-1.773.323c-1.023.248-4.117,1.457-4.644,2.3a1.16,1.16,0,0,0,.789,1.823c.568.036,2.923-1.323,3.785-1.575,2.844-.827,5.369.164,6.361,3.019-1.118-.325-3.994-.684-4.367.812-.38,1.519,2.3.8,3.112.9a4.034,4.034,0,0,1,1.794.837c.227.309-.332,2.1-.514,2.516-1.575,3.633-7.047,5.233-10.686,4.742-.8-.107-2.276-.818-2.732.311-.561,1.393.743,1.825,1.835,2.028a14.941,14.941,0,0,0,7.5-.752c1.487,6.06,6.145,11.2,11.7,13.912.4.2.818.386,1.237.566H102.418c.034-.048.066-.1.1-.152.748-1.248-1.073-2.526-1.739-3.594Zm49.643-56.065c5.724.521,6.156-9.593.621-10.314C145.445,117.49,144.8,128.02,150.424,128.531Zm-20.7,8.909a5.918,5.918,0,0,0,5.108-2.094c1.914,2.476,5.372,2.478,7.784.707.791-.582,1.873-1.482.934-2.485-1.023-1.093-1.8.384-2.587.834-1.762,1-4.194.787-4.851-1.387a9.163,9.163,0,0,1-.239-2.453c.059-.166,1.362-1.087,1.7-1.516,2.328-2.978-.741-3.376-3.139-3.271-1.925.084-4.021.375-2.657,2.8.4.707,1.878,1.678,1.939,1.991a5.029,5.029,0,0,1-.959,3.817,3.69,3.69,0,0,1-3.489.632c-.977-.332-2.541-2.669-3.467-1.234-1.1,1.712,2.578,3.526,3.924,3.66Zm-12.56-9.32c6.22,2.705,8.52-9.125,2.041-9.9C114.573,117.656,112.461,126.076,117.166,128.12Z" transform="translate(-73.037 -77.923)"/><path class="d" d="M309.456,83.562c1.123-2.878,1.884-3.749,4.994-2.31,3.858,1.787,8.641,6.133,11.614,9.218,1.055,1.093,2.112,2.616,3.2,3.61a1.532,1.532,0,0,0,1.048.534A58.853,58.853,0,0,1,337.6,93.36c-.057,11.33-11.048,20.5-24.6,20.5a28.706,28.706,0,0,1-9.552-1.609,35.214,35.214,0,0,1,3.714-7.654c-.164-6.979-.286-14.428,2.289-21.03Z" transform="translate(-282.542 -77.923)"/><path class="d" d="M107.934,96.944c.6-.139,1.241-1.184,1.662-1.614,3.592-3.653,8.345-8.2,12.885-10.566,1.946-1.014,3.56-2.069,4.787.366,3.085,6.12,2.739,15.265,2.537,21.964a40.131,40.131,0,0,1,3.737,7.786,28.788,28.788,0,0,1-8.766,1.348c-13.546,0-24.533-9.163-24.6-20.486,1.184.127,2.366.286,3.549.486,1.046.175,3.314.921,4.208.716Z" transform="translate(-32.277 -80.296)"/><path class="e" d="M449.448,372.2c6.588,1.778,5.24,10.975,6.172,15.969a15.5,15.5,0,0,0,5.565,9.9,30.89,30.89,0,0,0,.55,6.326c-8.986-2.451-15.826-10.759-17.647-19.754-.832-4.11-1.691-14.34,5.36-12.435Z" transform="translate(-438.523 -303.081)"/><path class="f" d="M309.419,353.864a50.2,50.2,0,0,1-6.722-2.187c-.825-.355-1.275-.566-1.08-1.609a37.546,37.546,0,0,1,1.607-3.9,3.309,3.309,0,0,1,.364-.618,1.774,1.774,0,0,1,1.278-.246,49.824,49.824,0,0,1,7.008,2.3c.925.4,1.159.623.948,1.741a47.113,47.113,0,0,1-1.839,4.383c-.436.443-1.057.245-1.564.127Z" transform="translate(-257.411 -282.462)"/><path class="g" d="M168.6,351.857c-2.251,1.018-5.24,1.439-7.563,2.4a1.36,1.36,0,0,1-1.089-.291,30.228,30.228,0,0,1-1.764-4c-.239-.921-.225-1.644.73-2.035a57.172,57.172,0,0,1,6.549-2.1,3.252,3.252,0,0,1,1.609-.17c.245.073.564.521.689.752a33.771,33.771,0,0,1,1.569,3.671C169.561,351.027,169.452,351.473,168.6,351.857Z" transform="translate(-81.326 -282.713)"/><path class="h" d="M491.769,202.023c.934-1.38,1-2.344,2.792-3.039.893-.346,2.939-.427,2.855-1.746-.073-1.1-2.485-1.273-3.376-1.746-2.139-1.132-2.346-4.358-2.666-6.472l-.711-.621-1.1.28c-.5,1.2-.468,2.505-.88,3.771a5.34,5.34,0,0,1-3.435,3.646c-.136.041-.716.03-.864.066-.384.093-1.057.548-1.132.948-.293,1.562,1.921,1.459,2.951,1.891,1.416.593,1.866,1.482,2.551,2.755.177.332.2.807.523.789l-.248.139-.014.907c.011.064-.02.139,0,.2a.106.106,0,0,0,.13.068c.02,0,.059-.123.127-.132l-.127.525a2.39,2.39,0,0,0,.132.655l.132-.066v.459l.257-.068c-.3.975.864.755,1.446.464a.9.9,0,0,0,.132-.132l-.655-.393.648.127a14.611,14.611,0,0,0,.236-2.2c.039-.239-.077-.491.293-.414a2.523,2.523,0,0,0,0-.261c-.321-.109-.08-.275,0-.393Z" transform="translate(-483.229 -161.24)"/><path class="i" d="M371.059,105.423c-.664-.571-1.459-1.339-2.16-1.837-2.776-1.966-3.567-1.38-4.367,1.744a39.9,39.9,0,0,0-.984,12.387,1.441,1.441,0,0,0,1.237,1.266c1.871-1.018,3.612-2.355,5.476-3.439.966-.562,1.978-1.1,2.967-1.619.777-.407,2.3-.912,2.878-1.314.775-.539.616-1.4.139-2.089A35.98,35.98,0,0,0,371.059,105.423Z" transform="translate(-335.213 -94.828)"/><path class="i" d="M136.507,106.632a39.2,39.2,0,0,0-5.494,5.053,9.745,9.745,0,0,0-1.762,2.437c-.2,1.439,1.384,1.569,2.355,2.082,2.71,1.437,5.381,3.649,7.9,4.937.684.35,1.307.671,1.853-.157.5-.762.375-3.746.336-4.783-.082-2.178-.652-8.177-1.73-9.929s-2.344-.48-3.462.361Z" transform="translate(-47.079 -97.105)"/></g></g></svg>